<mxfile host="app.diagrams.net" modified="2024-06-28T08:01:36.310Z" agent="Mozilla/5.0 (X11; Linux x86_64) AppleWebKit/537.36 (KHTML, like Gecko) Chrome/126.0.0.0 Safari/537.36" version="24.6.3" etag="4mqcZgHKRvrI7C4Bbw6y" type="github">
  <diagram name="Page-1" id="RkCZnl5YjWor8ucAal1S">
    <mxGraphModel>
      <root>
        <mxCell id="0" />
        <mxCell id="1" parent="0" />
      </root>
    </mxGraphModel>
  </diagram>
</mxfile>
